<svg id="visual" viewBox="0 0 900 600" width="900" height="600" xmlns="http://www.w3.org/2000/svg" xmlns:xlink="http://www.w3.org/1999/xlink" version="1.1"><rect x="0" y="0" width="900" height="600" fill="#FFFFFF"></rect><g transform="translate(443.48062754484874 325.63823013942726)"><path d="M93.1 -153.7C109.5 -116.3 103.7 -74.1 124.9 -34.5C146.1 5 194.3 41.9 204.5 83.6C214.6 125.3 186.6 171.9 146.2 174.4C105.8 176.9 52.9 135.3 -9 147.7C-70.9 160.1 -141.9 226.5 -172.9 221C-204 215.4 -195.2 138 -177.5 83.4C-159.8 28.8 -133.1 -2.9 -138.8 -63.5C-144.5 -124.2 -182.5 -213.8 -164.7 -250.7C-146.9 -287.6 -73.5 -271.8 -17.5 -247.7C38.4 -223.5 76.8 -191 93.1 -153.7" fill="#001122"></path></g></svg>