<svg id="visual" viewBox="0 0 900 600" width="900" height="600" xmlns="http://www.w3.org/2000/svg" xmlns:xlink="http://www.w3.org/1999/xlink" version="1.1"><rect x="0" y="0" width="900" height="600" fill="#FFFFFF"></rect><g transform="translate(503.80936405073606 376.48233364050725)"><path d="M174.1 -267.8C203.6 -218.2 190.2 -137.8 185.9 -77.7C181.7 -17.6 186.4 22.2 178.4 61.4C170.3 100.5 149.5 138.8 117.7 161.6C85.8 184.4 42.9 191.7 12.3 174.8C-18.4 158 -36.7 116.9 -73.4 95.6C-110 74.4 -164.8 72.9 -212.4 41.8C-260 10.7 -300.2 -50 -300.3 -112.4C-300.5 -174.9 -260.4 -239.1 -203.7 -279.9C-146.9 -320.6 -73.5 -337.8 -0.6 -337C72.3 -336.2 144.6 -317.4 174.1 -267.8" fill="#001122"></path></g></svg>