<svg id="visual" viewBox="0 0 900 600" width="900" height="600" xmlns="http://www.w3.org/2000/svg" xmlns:xlink="http://www.w3.org/1999/xlink" version="1.1"><rect x="0" y="0" width="900" height="600" fill="#FFFFFF"></rect><g transform="translate(452.1087213797839 349.4173293174713)"><path d="M187.7 -261.7C228.4 -228.7 236.4 -154.1 230.9 -93.4C225.4 -32.7 206.4 14.1 175.2 40.6C144.1 67 100.9 73.1 69.6 103C38.4 132.9 19.2 186.4 0.4 185.9C-18.4 185.3 -36.7 130.6 -71.1 101.7C-105.5 72.9 -156 70 -189.9 43.3C-223.8 16.7 -241.3 -33.7 -235.6 -84.4C-229.9 -135 -201 -186 -157.9 -218.2C-114.8 -250.4 -57.4 -263.7 8 -274.7C73.5 -285.8 146.9 -294.6 187.7 -261.7" fill="#001122"></path></g></svg>