<svg id="visual" viewBox="0 0 900 150" width="900" height="150" xmlns="http://www.w3.org/2000/svg" xmlns:xlink="http://www.w3.org/1999/xlink" version="1.1"><rect x="0" y="0" width="900" height="150" fill="#001122"></rect><path d="M0 56L18.8 56.8C37.7 57.7 75.3 59.3 112.8 62.3C150.3 65.3 187.7 69.7 225.2 71C262.7 72.3 300.3 70.7 337.8 68.8C375.3 67 412.7 65 450.2 66.5C487.7 68 525.3 73 562.8 70.5C600.3 68 637.7 58 675.2 56.5C712.7 55 750.3 62 787.8 67.5C825.3 73 862.7 77 881.3 79L900 81L900 0L881.3 0C862.7 0 825.3 0 787.8 0C750.3 0 712.7 0 675.2 0C637.7 0 600.3 0 562.8 0C525.3 0 487.7 0 450.2 0C412.7 0 375.3 0 337.8 0C300.3 0 262.7 0 225.2 0C187.7 0 150.3 0 112.8 0C75.3 0 37.7 0 18.8 0L0 0Z" fill="#0e3154"></path><path d="M0 68L18.8 63.5C37.7 59 75.3 50 112.8 49.2C150.3 48.3 187.7 55.7 225.2 57.2C262.7 58.7 300.3 54.3 337.8 50.8C375.3 47.3 412.7 44.7 450.2 46.8C487.7 49 525.3 56 562.8 56.8C600.3 57.7 637.7 52.3 675.2 53.2C712.7 54 750.3 61 787.8 63.7C825.3 66.3 862.7 64.7 881.3 63.8L900 63L900 0L881.3 0C862.7 0 825.3 0 787.8 0C750.3 0 712.7 0 675.2 0C637.7 0 600.3 0 562.8 0C525.3 0 487.7 0 450.2 0C412.7 0 375.3 0 337.8 0C300.3 0 262.7 0 225.2 0C187.7 0 150.3 0 112.8 0C75.3 0 37.7 0 18.8 0L0 0Z" fill="#4d5f7c"></path><path d="M0 40L18.8 40.8C37.7 41.7 75.3 43.3 112.8 42.7C150.3 42 187.7 39 225.2 37.2C262.7 35.3 300.3 34.7 337.8 36.7C375.3 38.7 412.7 43.3 450.2 44.3C487.7 45.3 525.3 42.7 562.8 39.5C600.3 36.3 637.7 32.7 675.2 35.2C712.7 37.7 750.3 46.3 787.8 47.8C825.3 49.3 862.7 43.7 881.3 40.8L900 38L900 0L881.3 0C862.7 0 825.3 0 787.8 0C750.3 0 712.7 0 675.2 0C637.7 0 600.3 0 562.8 0C525.3 0 487.7 0 450.2 0C412.7 0 375.3 0 337.8 0C300.3 0 262.7 0 225.2 0C187.7 0 150.3 0 112.8 0C75.3 0 37.7 0 18.8 0L0 0Z" fill="#8691a6"></path><path d="M0 24L18.8 24.3C37.7 24.7 75.3 25.3 112.8 27.3C150.3 29.3 187.7 32.7 225.2 33.5C262.7 34.3 300.3 32.7 337.8 33.3C375.3 34 412.7 37 450.2 38.5C487.7 40 525.3 40 562.8 37.8C600.3 35.7 637.7 31.3 675.2 31C712.7 30.7 750.3 34.3 787.8 33.7C825.3 33 862.7 28 881.3 25.5L900 23L900 0L881.3 0C862.7 0 825.3 0 787.8 0C750.3 0 712.7 0 675.2 0C637.7 0 600.3 0 562.8 0C525.3 0 487.7 0 450.2 0C412.7 0 375.3 0 337.8 0C300.3 0 262.7 0 225.2 0C187.7 0 150.3 0 112.8 0C75.3 0 37.7 0 18.8 0L0 0Z" fill="#c1c7d2"></path><path d="M0 12L18.8 12.3C37.7 12.7 75.3 13.3 112.8 14.2C150.3 15 187.7 16 225.2 15.3C262.7 14.7 300.3 12.3 337.8 12.3C375.3 12.3 412.7 14.7 450.2 16.7C487.7 18.7 525.3 20.3 562.8 20C600.3 19.7 637.7 17.3 675.2 17.8C712.7 18.3 750.3 21.7 787.8 21.7C825.3 21.7 862.7 18.3 881.3 16.7L900 15L900 0L881.3 0C862.7 0 825.3 0 787.8 0C750.3 0 712.7 0 675.2 0C637.7 0 600.3 0 562.8 0C525.3 0 487.7 0 450.2 0C412.7 0 375.3 0 337.8 0C300.3 0 262.7 0 225.2 0C187.7 0 150.3 0 112.8 0C75.3 0 37.7 0 18.8 0L0 0Z" fill="#ffffff"></path></svg>