<svg id="visual" viewBox="0 0 900 150" width="900" height="150" xmlns="http://www.w3.org/2000/svg" xmlns:xlink="http://www.w3.org/1999/xlink" version="1.1"><rect x="0" y="0" width="900" height="150" fill="#001122"></rect><path d="M0 92L18.8 91.2C37.7 90.3 75.3 88.7 112.8 85.7C150.3 82.7 187.7 78.3 225.2 77C262.7 75.7 300.3 77.3 337.8 79.2C375.3 81 412.7 83 450.2 81.5C487.7 80 525.3 75 562.8 77.5C600.3 80 637.7 90 675.2 91.5C712.7 93 750.3 86 787.8 80.5C825.3 75 862.7 71 881.3 69L900 67L900 151L881.3 151C862.7 151 825.3 151 787.8 151C750.3 151 712.7 151 675.2 151C637.7 151 600.3 151 562.8 151C525.3 151 487.7 151 450.2 151C412.7 151 375.3 151 337.8 151C300.3 151 262.7 151 225.2 151C187.7 151 150.3 151 112.8 151C75.3 151 37.7 151 18.8 151L0 151Z" fill="#0e3154"></path><path d="M0 80L18.8 84.5C37.7 89 75.3 98 112.8 98.8C150.3 99.7 187.7 92.3 225.2 90.8C262.7 89.3 300.3 93.7 337.8 97.2C375.3 100.7 412.7 103.3 450.2 101.2C487.7 99 525.3 92 562.8 91.2C600.3 90.3 637.7 95.7 675.2 94.8C712.7 94 750.3 87 787.8 84.3C825.3 81.7 862.7 83.3 881.3 84.2L900 85L900 151L881.3 151C862.7 151 825.3 151 787.8 151C750.3 151 712.7 151 675.2 151C637.7 151 600.3 151 562.8 151C525.3 151 487.7 151 450.2 151C412.7 151 375.3 151 337.8 151C300.3 151 262.7 151 225.2 151C187.7 151 150.3 151 112.8 151C75.3 151 37.7 151 18.8 151L0 151Z" fill="#4d5f7c"></path><path d="M0 108L18.8 107.2C37.7 106.3 75.3 104.7 112.8 105.3C150.3 106 187.7 109 225.2 110.8C262.7 112.7 300.3 113.3 337.8 111.3C375.3 109.3 412.7 104.7 450.2 103.7C487.7 102.7 525.3 105.3 562.8 108.5C600.3 111.7 637.7 115.3 675.2 112.8C712.7 110.3 750.3 101.7 787.8 100.2C825.3 98.7 862.7 104.3 881.3 107.2L900 110L900 151L881.3 151C862.7 151 825.3 151 787.8 151C750.3 151 712.7 151 675.2 151C637.7 151 600.3 151 562.8 151C525.3 151 487.7 151 450.2 151C412.7 151 375.3 151 337.8 151C300.3 151 262.7 151 225.2 151C187.7 151 150.3 151 112.8 151C75.3 151 37.7 151 18.8 151L0 151Z" fill="#8691a6"></path><path d="M0 124L18.8 123.7C37.7 123.3 75.3 122.7 112.8 120.7C150.3 118.7 187.7 115.3 225.2 114.5C262.7 113.7 300.3 115.3 337.8 114.7C375.3 114 412.7 111 450.2 109.5C487.7 108 525.3 108 562.8 110.2C600.3 112.3 637.7 116.7 675.2 117C712.7 117.3 750.3 113.7 787.8 114.3C825.3 115 862.7 120 881.3 122.5L900 125L900 151L881.3 151C862.7 151 825.3 151 787.8 151C750.3 151 712.7 151 675.2 151C637.7 151 600.3 151 562.8 151C525.3 151 487.7 151 450.2 151C412.7 151 375.3 151 337.8 151C300.3 151 262.7 151 225.2 151C187.7 151 150.3 151 112.8 151C75.3 151 37.7 151 18.8 151L0 151Z" fill="#c1c7d2"></path><path d="M0 136L18.8 135.7C37.7 135.3 75.3 134.7 112.8 133.8C150.3 133 187.7 132 225.2 132.7C262.7 133.3 300.3 135.7 337.8 135.7C375.3 135.7 412.7 133.3 450.2 131.3C487.7 129.3 525.3 127.7 562.8 128C600.3 128.3 637.7 130.7 675.2 130.2C712.7 129.7 750.3 126.3 787.8 126.3C825.3 126.3 862.7 129.7 881.3 131.3L900 133L900 151L881.3 151C862.7 151 825.3 151 787.8 151C750.3 151 712.7 151 675.2 151C637.7 151 600.3 151 562.8 151C525.3 151 487.7 151 450.2 151C412.7 151 375.3 151 337.8 151C300.3 151 262.7 151 225.2 151C187.7 151 150.3 151 112.8 151C75.3 151 37.7 151 18.8 151L0 151Z" fill="#ffffff"></path></svg>